{
  "accessors": [
    {
      "bufferView": 2,
      "componentType": 5126,
      "count": 65532,
      "max": [
        8.8159122467041016,
        -42.26788330078125,
        4.3349308967590332
      ],
      "min": [
        -11.46174144744873,
        -58.460613250732422,
        -8.7434673309326172
      ],
      "type": "VEC3"
    },
    {
      "bufferView": 2,
      "byteOffset": 786384,
      "componentType": 5126,
      "count": 65532,
      "max": [
        0.99997955560684204,
        0.99999994039535522,
        0.99999696016311646
      ],
      "min": [
        -0.99999731779098511,
        -0.99999988079071045,
        -0.99999815225601196
      ],
      "type": "VEC3"
    },
    {
      "bufferView": 1,
      "componentType": 5126,
      "count": 65532,
      "max": [
        0.99976402521133423,
        0.99987798929214478
      ],
      "min": [
        0.00012199999764561653,
        0.0001900000061141327
      ],
      "type": "VEC2"
    },
    {
      "bufferView": 0,
      "componentType": 5125,
      "count": 313923,
      "max": [
        65531
      ],
      "min": [
        0
      ],
      "type": "SCALAR"
    },
    {
      "bufferView": 2,
      "byteOffset": 1572768,
      "componentType": 5126,
      "count": 65532,
      "max": [
        8.8081779479980469,
        -42.26788330078125,
        4.2971839904785156
      ],
      "min": [
        -11.936993598937988,
        -64.131431579589844,
        -8.7167644500732422
      ],
      "type": "VEC3"
    },
    {
      "bufferView": 2,
      "byteOffset": 2359152,
      "componentType": 5126,
      "count": 65532,
      "max": [
        0.99999803304672241,
        0.99999994039535522,
        0.99999785423278809
      ],
      "min": [
        -0.99999731779098511,
        -1,
        -1
      ],
      "type": "VEC3"
    },
    {
      "bufferView": 1,
      "byteOffset": 524256,
      "componentType": 5126,
      "count": 65532,
      "max": [
        0.99980998039245605,
        0.99987798929214478
      ],
      "min": [
        0.00012199999764561653,
        0.00020399999630171806
      ],
      "type": "VEC2"
    },
    {
      "bufferView": 0,
      "byteOffset": 1255692,
      "componentType": 5125,
      "count": 299355,
      "max": [
        65531
      ],
      "min": [
        0
      ],
      "type": "SCALAR"
    },
    {
      "bufferView": 2,
      "byteOffset": 3145536,
      "componentType": 5126,
      "count": 65532,
      "max": [
        8.7799358367919922,
        -42.365272521972656,
        4.2811374664306641
      ],
      "min": [
        -12.051576614379883,
        -62.785633087158203,
        -8.6863183975219727
      ],
      "type": "VEC3"
    },
    {
      "bufferView": 2,
      "byteOffset": 3931920,
      "componentType": 5126,
      "count": 65532,
      "max": [
        0.99933320283889771,
        0.9998818039894104,
        0.99995768070220947
      ],
      "min": [
        -0.99999886751174927,
        -0.9999997615814209,
        -0.99999982118606567
      ],
      "type": "VEC3"
    },
    {
      "bufferView": 1,
      "byteOffset": 1048512,
      "componentType": 5126,
      "count": 65532,
      "max": [
        0.99975001811981201,
        0.99987798929214478
      ],
      "min": [
        0.00012199999764561653,
        0.0001829999964684248
      ],
      "type": "VEC2"
    },
    {
      "bufferView": 0,
      "byteOffset": 2453112,
      "componentType": 5125,
      "count": 291192,
      "max": [
        65531
      ],
      "min": [
        0
      ],
      "type": "SCALAR"
    },
    {
      "bufferView": 2,
      "byteOffset": 4718304,
      "componentType": 5126,
      "count": 65532,
      "max": [
        8.8034524917602539,
        -42.356483459472656,
        4.2345719337463379
      ],
      "min": [
        -12.223421096801758,
        -65.921546936035156,
        -8.7356901168823242
      ],
      "type": "VEC3"
    },
    {
      "bufferView": 2,
      "byteOffset": 5504688,
      "componentType": 5126,
      "count": 65532,
      "max": [
        0.99999970197677612,
        0.99991500377655029,
        0.99995177984237671
      ],
      "min": [
        -0.99999880790710449,
        -0.99999970197677612,
        -0.99999862909317017
      ],
      "type": "VEC3"
    },
    {
      "bufferView": 1,
      "byteOffset": 1572768,
      "componentType": 5126,
      "count": 65532,
      "max": [
        0.99981600046157837,
        0.99987798929214478
      ],
      "min": [
        0.00012199999764561653,
        0.00018499999714549631
      ],
      "type": "VEC2"
    },
    {
      "bufferView": 0,
      "byteOffset": 3617880,
      "componentType": 5125,
      "count": 262788,
      "max": [
        65531
      ],
      "min": [
        0
      ],
      "type": "SCALAR"
    },
    {
      "bufferView": 2,
      "byteOffset": 6291072,
      "componentType": 5126,
      "count": 61982,
      "max": [
        4.8388352394104004,
        -42.368888854980469,
        4.2467951774597168
      ],
      "min": [
        -13.406909942626953,
        -69.105644226074219,
        -7.0392031669616699
      ],
      "type": "VEC3"
    },
    {
      "bufferView": 2,
      "byteOffset": 7034856,
      "componentType": 5126,
      "count": 61982,
      "max": [
        0.99996602535247803,
        0.99975740909576416,
        0.99999970197677612
      ],
      "min": [
        -0.99999970197677612,
        -0.99999862909317017,
        -0.99998843669891357
      ],
      "type": "VEC3"
    },
    {
      "bufferView": 1,
      "byteOffset": 2097024,
      "componentType": 5126,
      "count": 61982,
      "max": [
        0.99981600046157837,
        0.99987798929214478
      ],
      "min": [
        0.00012199999764561653,
        0.0001829999964684248
      ],
      "type": "VEC2"
    },
    {
      "bufferView": 0,
      "byteOffset": 4669032,
      "componentType": 5125,
      "count": 222273,
      "max": [
        61981
      ],
      "min": [
        0
      ],
      "type": "SCALAR"
    },
    {
      "bufferView": 2,
      "byteOffset": 7778640,
      "componentType": 5126,
      "count": 29424,
      "max": [
        8.804438591003418,
        -42.26788330078125,
        4.2958474159240723
      ],
      "min": [
        -11.932162284851074,
        -42.26788330078125,
        -8.7346029281616211
      ],
      "type": "VEC3"
    },
    {
      "bufferView": 2,
      "byteOffset": 8131728,
      "componentType": 5126,
      "count": 29424,
      "max": [
        0.99477165937423706,
        1,
        0.99992728233337402
      ],
      "min": [
        -0.99999517202377319,
        -0.15379908680915833,
        -0.99997961521148682
      ],
      "type": "VEC3"
    },
    {
      "bufferView": 1,
      "byteOffset": 2592880,
      "componentType": 5126,
      "count": 29424,
      "max": [
        0,
        0
      ],
      "min": [
        0,
        0
      ],
      "type": "VEC2"
    },
    {
      "bufferView": 0,
      "byteOffset": 5558124,
      "componentType": 5125,
      "count": 170595,
      "max": [
        29423
      ],
      "min": [
        0
      ],
      "type": "SCALAR"
    }
  ],
  "asset": {
    "extras": {
      "author": "noe-3d.at (https://sketchfab.com/www.noe-3d.at)",
      "license": "CC0-1.0 (http://creativecommons.org/publicdomain/zero/1.0/)",
      "source": "https://sketchfab.com/3d-models/lowe-3396c1f61742469ea956b1320d22eb95",
      "title": "Löwe"
    },
    "generator": "Sketchfab-10.13.0",
    "version": "2.0"
  },
  "bufferViews": [
    {
      "buffer": 0,
      "byteLength": 6240504,
      "byteOffset": 0,
      "name": "floatBufferViews",
      "target": 34963
    },
    {
      "buffer": 0,
      "byteLength": 2828272,
      "byteOffset": 6240504,
      "byteStride": 8,
      "name": "floatBufferViews",
      "target": 34962
    },
    {
      "buffer": 0,
      "byteLength": 8484816,
      "byteOffset": 9068776,
      "byteStride": 12,
      "name": "floatBufferViews",
      "target": 34962
    }
  ],
  "buffers": [
    {
      "byteLength": 17553592,
      "uri": "scene.bin"
    }
  ],
  "images": [
    {
      "uri": "textures/Loewe_O_Material_u1_v1_baseColor.png"
    }
  ],
  "materials": [
    {
      "doubleSided": true,
      "emissiveFactor": [
        0,
        0,
        0
      ],
      "name": "Loewe_O_Material_u1_v1",
      "pbrMetallicRoughness": {
        "baseColorFactor": [
          1,
          1,
          1,
          1
        ],
        "baseColorTexture": {
          "index": 0,
          "texCoord": 0
        },
        "metallicFactor": 0,
        "roughnessFactor": 1
      }
    }
  ],
  "meshes": [
    {
      "primitives": [
        {
          "attributes": {
            "NORMAL": 1,
            "POSITION": 0,
            "TEXCOORD_0": 2
          },
          "indices": 3,
          "material": 0,
          "mode": 4
        }
      ]
    },
    {
      "primitives": [
        {
          "attributes": {
            "NORMAL": 5,
            "POSITION": 4,
            "TEXCOORD_0": 6
          },
          "indices": 7,
          "material": 0,
          "mode": 4
        }
      ]
    },
    {
      "primitives": [
        {
          "attributes": {
            "NORMAL": 9,
            "POSITION": 8,
            "TEXCOORD_0": 10
          },
          "indices": 11,
          "material": 0,
          "mode": 4
        }
      ]
    },
    {
      "primitives": [
        {
          "attributes": {
            "NORMAL": 13,
            "POSITION": 12,
            "TEXCOORD_0": 14
          },
          "indices": 15,
          "material": 0,
          "mode": 4
        }
      ]
    },
    {
      "primitives": [
        {
          "attributes": {
            "NORMAL": 17,
            "POSITION": 16,
            "TEXCOORD_0": 18
          },
          "indices": 19,
          "material": 0,
          "mode": 4
        }
      ]
    },
    {
      "primitives": [
        {
          "attributes": {
            "NORMAL": 21,
            "POSITION": 20,
            "TEXCOORD_0": 22
          },
          "indices": 23,
          "material": 0,
          "mode": 4
        }
      ]
    }
  ],
  "nodes": [
    {
      "children": [
        1
      ],
      "name": "RootNode (gltf orientation matrix)",
      "rotation": [
        -0.70710678118654746,
        -0,
        -0,
        0.70710678118654757
      ]
    },
    {
      "children": [
        2
      ],
      "matrix": [
        -0.057076923231707877,
        0.00047393460185025243,
        -5.672879865141825e-05,
        0,
        5.601486150909156e-05,
        -8.6208132538787181e-05,
        -0.057078828446218477,
        0,
        -0.00047401949659281462,
        -0.057076889210020187,
        8.5740015379737362e-05,
        0,
        -4.5545811653137207,
        -57.955951690673828,
        -57.889865875244141,
        1
      ],
      "name": "RootNode (model correction matrix)"
    },
    {
      "children": [
        3,
        4,
        5,
        6,
        7,
        8
      ],
      "name": "Loewe_C.obj.cleaner.materialmerger.gles"
    },
    {
      "mesh": 0,
      "name": ""
    },
    {
      "mesh": 1,
      "name": ""
    },
    {
      "mesh": 2,
      "name": ""
    },
    {
      "mesh": 3,
      "name": ""
    },
    {
      "mesh": 4,
      "name": ""
    },
    {
      "mesh": 5,
      "name": ""
    }
  ],
  "samplers": [
    {
      "magFilter": 9729,
      "minFilter": 9987,
      "wrapS": 10497,
      "wrapT": 10497
    }
  ],
  "scene": 0,
  "scenes": [
    {
      "name": "OSG_Scene",
      "nodes": [
        0
      ]
    }
  ],
  "textures": [
    {
      "sampler": 0,
      "source": 0
    }
  ]
}

